<svg width="97" height="96" viewBox="0 0 97 96" fill="none" xmlns="http://www.w3.org/2000/svg">
<path d="M48.8585 8C26.7045 8 8.85846 25.846 8.85846 48C8.85846 70.154 26.7045 88 48.8585 88C71.0105 88 88.8585 70.154 88.8585 48C88.8585 25.846 71.0105 8 48.8585 8Z" fill="#191414"/>
<path opacity="0.05" d="M43.3044 31.876C54.4124 31.876 66.1044 34.216 74.8744 39.184C76.0424 39.77 76.9184 40.938 76.9184 42.692C76.6284 44.738 75.1644 46.202 73.1204 46.202C72.2444 46.202 71.9504 45.91 71.0744 45.62C64.0584 41.526 53.5364 39.186 43.3044 39.186C38.0424 39.186 32.7804 39.772 28.1044 40.94C27.5184 40.94 26.9344 41.232 26.0584 41.232C25.9084 41.254 25.7604 41.264 25.6164 41.264C23.8064 41.264 22.5504 39.622 22.5504 37.724C22.5504 35.678 23.7204 34.51 25.1804 34.216C30.7344 32.462 36.5804 31.876 43.3044 31.876ZM42.4264 44.738C52.3664 44.738 62.0124 47.078 69.6124 51.752C70.7804 52.334 71.3664 53.506 71.3664 54.674C71.3664 56.43 70.1964 57.89 68.4424 57.89C67.5664 57.89 66.9824 57.602 66.3964 57.308C60.2604 53.508 51.7804 51.166 42.1364 51.166C37.4584 51.166 33.0744 51.752 29.8584 52.632C28.9804 52.92 28.6884 52.92 28.1044 52.92C26.3504 52.92 25.1804 51.46 25.1804 49.998C25.1804 48.244 26.0584 47.366 27.5184 46.784C31.9024 45.616 36.2884 44.738 42.4264 44.738ZM43.3024 57.308C51.4884 57.308 59.0884 59.35 65.5184 63.156C66.3944 63.738 66.9804 64.324 66.9804 65.784C66.6884 66.956 65.5184 67.83 64.3504 67.83C63.7664 67.83 63.1804 67.54 62.5964 67.246C57.0424 64.032 50.3184 62.278 43.0124 62.278C38.9184 62.278 34.8264 62.86 31.0264 63.738C30.4424 63.738 29.5644 64.03 29.2724 64.03C27.8104 64.03 26.9344 62.858 26.9344 61.69C26.9344 60.23 27.8104 59.35 28.9804 59.062C33.6564 57.89 38.3344 57.308 43.3024 57.308ZM43.3044 29.876C35.7264 29.876 29.9724 30.618 24.6704 32.28C22.1624 32.838 20.5504 34.962 20.5504 37.724C20.5504 40.83 22.7744 43.264 25.6164 43.264C25.8064 43.264 26.0004 43.254 26.1984 43.23C26.8364 43.216 27.3464 43.1 27.7264 43.016C27.8624 42.986 27.9864 42.946 28.1124 42.94H28.3584L28.5904 42.88C33.0284 41.772 38.1164 41.186 43.3064 41.186C53.4524 41.186 63.4564 43.49 70.0684 47.348L70.2484 47.454L70.4464 47.52C70.6644 47.592 70.8364 47.666 70.9924 47.73C71.4944 47.94 72.1184 48.202 73.1224 48.202C76.0884 48.202 78.4644 46.052 78.9004 42.972L78.9204 42.832V42.69C78.9204 40.348 77.7924 38.43 75.8224 37.42C67.3324 32.626 55.4844 29.876 43.3044 29.876ZM42.4264 42.738C35.8444 42.738 31.1244 43.754 27.0044 44.852L26.8884 44.882L26.7784 44.926C24.3904 45.878 23.1804 47.584 23.1804 49.998C23.1804 52.712 25.3884 54.92 28.1044 54.92C28.8464 54.92 29.3564 54.902 30.4824 54.532C33.6264 53.674 37.9104 53.166 42.1364 53.166C51.0184 53.166 59.2604 55.24 65.3424 59.008L65.4184 59.056L65.4984 59.096C66.1664 59.432 67.0824 59.89 68.4404 59.89C71.2484 59.89 73.3644 57.648 73.3644 54.674C73.3644 52.682 72.3044 50.902 70.5904 50.006C62.9364 45.318 52.9364 42.738 42.4264 42.738ZM43.3024 55.308C38.2084 55.308 33.3644 55.902 28.4944 57.122C26.3024 57.662 24.9344 59.412 24.9344 61.69C24.9344 64.124 26.8404 66.03 29.2724 66.03C29.6164 66.03 29.9404 65.956 30.3164 65.872C30.5184 65.826 30.8924 65.742 31.0304 65.738L31.2324 65.732L31.4764 65.686C35.5224 64.752 39.4024 64.278 43.0124 64.278C49.8564 64.278 56.2824 65.902 61.5944 68.978L61.6444 69.008L61.6964 69.034C62.3644 69.37 63.2804 69.832 64.3504 69.832C66.4504 69.832 68.4144 68.3 68.9204 66.27L68.9804 66.032V65.786C68.9804 63.382 67.7904 62.266 66.6244 61.492L66.5804 61.464L66.5364 61.438C59.7664 57.426 51.7304 55.308 43.3024 55.308Z" fill="black"/>
<path opacity="0.07" d="M43.3044 31.876C54.4124 31.876 66.1044 34.216 74.8744 39.184C76.0424 39.77 76.9184 40.938 76.9184 42.692C76.6284 44.738 75.1644 46.202 73.1204 46.202C72.2444 46.202 71.9504 45.91 71.0744 45.62C64.0584 41.526 53.5364 39.186 43.3044 39.186C38.0424 39.186 32.7804 39.772 28.1044 40.94C27.5184 40.94 26.9344 41.232 26.0584 41.232C25.9084 41.254 25.7604 41.264 25.6164 41.264C23.8064 41.264 22.5504 39.622 22.5504 37.724C22.5504 35.678 23.7204 34.51 25.1804 34.216C30.7344 32.462 36.5804 31.876 43.3044 31.876ZM42.4264 44.738C52.3664 44.738 62.0124 47.078 69.6124 51.752C70.7804 52.334 71.3664 53.506 71.3664 54.674C71.3664 56.43 70.1964 57.89 68.4424 57.89C67.5664 57.89 66.9824 57.602 66.3964 57.308C60.2604 53.508 51.7804 51.166 42.1364 51.166C37.4584 51.166 33.0744 51.752 29.8584 52.632C28.9804 52.92 28.6884 52.92 28.1044 52.92C26.3504 52.92 25.1804 51.46 25.1804 49.998C25.1804 48.244 26.0584 47.366 27.5184 46.784C31.9024 45.616 36.2884 44.738 42.4264 44.738ZM43.3024 57.308C51.4884 57.308 59.0884 59.35 65.5184 63.156C66.3944 63.738 66.9804 64.324 66.9804 65.784C66.6884 66.956 65.5184 67.83 64.3504 67.83C63.7664 67.83 63.1804 67.54 62.5964 67.246C57.0424 64.032 50.3184 62.278 43.0124 62.278C38.9184 62.278 34.8264 62.86 31.0264 63.738C30.4424 63.738 29.5644 64.03 29.2724 64.03C27.8104 64.03 26.9344 62.858 26.9344 61.69C26.9344 60.23 27.8104 59.35 28.9804 59.062C33.6564 57.89 38.3344 57.308 43.3024 57.308ZM43.3044 30.876C35.8104 30.876 30.1404 31.608 24.9284 33.248C22.8444 33.692 21.5504 35.404 21.5504 37.724C21.5504 40.27 23.3364 42.264 25.6164 42.264C25.7844 42.264 25.9544 42.254 26.1304 42.232C26.6904 42.224 27.1424 42.122 27.5084 42.04C27.7464 41.986 27.9524 41.94 28.1064 41.94H28.2284L28.3484 41.91C32.8644 40.782 38.0364 40.186 43.3064 40.186C53.6224 40.186 63.8144 42.54 70.5724 46.484L70.6624 46.536L70.7624 46.568C71.0084 46.65 71.2044 46.732 71.3804 46.806C71.8424 47 72.3204 47.2 73.1224 47.2C75.6164 47.2 77.5404 45.444 77.9104 42.83L77.9204 42.76V42.69C77.9204 40.72 76.9744 39.116 75.3244 38.288C67.0224 33.588 55.3364 30.876 43.3044 30.876ZM42.4264 43.738C36.3184 43.738 31.9464 44.57 27.2604 45.818L27.2024 45.834L27.1464 45.856C25.8724 46.364 24.1784 47.346 24.1784 49.998C24.1784 51.884 25.6784 53.92 28.1024 53.92C28.7824 53.92 29.1844 53.904 30.1684 53.582C33.4424 52.688 37.8224 52.166 42.1344 52.166C51.2004 52.166 59.6284 54.294 65.8684 58.158C66.5584 58.508 67.3184 58.89 68.4404 58.89C70.6784 58.89 72.3644 57.078 72.3644 54.674C72.3644 53.028 71.4804 51.566 70.0564 50.856C62.6264 46.282 52.7864 43.738 42.4264 43.738ZM43.3024 56.308C38.2904 56.308 33.5264 56.892 28.7364 58.092C27.0084 58.518 25.9344 59.896 25.9344 61.69C25.9344 63.332 27.1824 65.03 29.2724 65.03C29.5044 65.03 29.7644 64.972 30.0944 64.896C30.3904 64.83 30.7964 64.738 31.0264 64.738H31.1404L31.2524 64.712C35.3724 63.76 39.3284 63.278 43.0124 63.278C50.0324 63.278 56.6304 64.95 62.0964 68.112C62.7584 68.448 63.5204 68.83 64.3504 68.83C66.0044 68.83 67.5524 67.624 67.9504 66.026L67.9804 65.906V65.784C67.9804 63.76 66.9944 62.936 66.0724 62.324C59.4104 58.378 51.5524 56.308 43.3024 56.308Z" fill="black"/>
<path d="M64.3504 67.83C63.7664 67.83 63.1804 67.54 62.5964 67.246C57.0424 64.032 50.3184 62.278 43.0124 62.278C38.9184 62.278 34.8264 62.86 31.0264 63.738C30.4424 63.738 29.5644 64.03 29.2724 64.03C27.8104 64.03 26.9344 62.858 26.9344 61.69C26.9344 60.23 27.8104 59.35 28.9804 59.062C33.6564 57.89 38.3344 57.308 43.3024 57.308C51.4884 57.308 59.0884 59.35 65.5184 63.156C66.3944 63.738 66.9804 64.324 66.9804 65.784C66.6884 66.956 65.5184 67.83 64.3504 67.83ZM68.4424 57.89C67.5664 57.89 66.9824 57.602 66.3964 57.308C60.2604 53.508 51.7804 51.166 42.1364 51.166C37.4584 51.166 33.0744 51.752 29.8584 52.632C28.9804 52.92 28.6884 52.92 28.1044 52.92C26.3504 52.92 25.1804 51.46 25.1804 49.998C25.1804 48.244 26.0584 47.366 27.5184 46.784C31.9024 45.616 36.2884 44.738 42.4264 44.738C52.3664 44.738 62.0124 47.078 69.6124 51.752C70.7804 52.334 71.3664 53.506 71.3664 54.674C71.3664 56.43 70.1964 57.89 68.4424 57.89ZM73.1204 46.202C72.2444 46.202 71.9504 45.91 71.0744 45.62C64.0584 41.526 53.5364 39.186 43.3044 39.186C38.0424 39.186 32.7804 39.772 28.1044 40.94C27.5184 40.94 26.9344 41.232 26.0584 41.232C24.0124 41.524 22.5504 39.772 22.5504 37.724C22.5504 35.678 23.7204 34.51 25.1804 34.216C30.7344 32.462 36.5804 31.876 43.3044 31.876C54.4124 31.876 66.1044 34.216 74.8744 39.184C76.0424 39.77 76.9184 40.938 76.9184 42.692C76.6284 44.738 75.1644 46.202 73.1204 46.202Z" fill="white"/>
</svg>
